<svg width="58" height="56" viewBox="0 0 58 56" fill="none" xmlns="http://www.w3.org/2000/svg">
<path d="M29 51.264C28.865 51.264 28.73 51.2341 28.6049 51.1734L0.511172 37.5796C0.0607658 37.3612 -0.127734 36.8193 0.0897658 36.3689C0.307266 35.9203 0.847391 35.7318 1.30052 35.9475L29 49.3509L56.6987 35.9484C57.1527 35.7327 57.6919 35.9212 57.9094 36.3698C58.1269 36.8202 57.9384 37.3621 57.488 37.5806L29.3943 51.1743C29.2701 51.2341 29.1351 51.264 29 51.264Z" fill="black"/>
<path d="M29 55.7954C28.865 55.7954 28.73 55.7655 28.6049 55.7048L0.511172 42.111C0.0607658 41.8926 -0.127734 41.3507 0.0897658 40.9003C0.307266 40.4508 0.847391 40.2623 1.30052 40.4789L29 53.8823L56.6987 40.4798C57.1527 40.2632 57.6919 40.4517 57.9094 40.9012C58.1269 41.3516 57.9384 41.8935 57.488 42.1119L29.3943 55.7057C29.2701 55.7655 29.1351 55.7954 29 55.7954Z" fill="black"/>
<path d="M0.90625 42.2015C0.405094 42.2015 0 41.7964 0 41.2953V36.764C0 36.2629 0.405094 35.8578 0.90625 35.8578C1.40741 35.8578 1.8125 36.2629 1.8125 36.764V41.2953C1.8125 41.7964 1.40741 42.2015 0.90625 42.2015Z" fill="black"/>
<path d="M57.0939 42.2015C56.5927 42.2015 56.1876 41.7964 56.1876 41.2953V36.764C56.1876 36.2629 56.5927 35.8578 57.0939 35.8578C57.595 35.8578 58.0001 36.2629 58.0001 36.764V41.2953C58.0001 41.7964 57.595 42.2015 57.0939 42.2015Z" fill="black"/>
<path d="M29 55.7953C28.4988 55.7953 28.0938 55.3902 28.0938 54.889V50.3578C28.0938 49.8566 28.4988 49.4515 29 49.4515C29.5012 49.4515 29.9062 49.8566 29.9062 50.3578V54.889C29.9062 55.3902 29.5012 55.7953 29 55.7953Z" fill="black"/>
<path d="M38.0897 49.1443C37.5886 49.1443 37.179 48.7392 37.179 48.238C37.179 47.7369 37.5795 47.3318 38.0798 47.3318H38.0897C38.59 47.3318 38.996 47.7369 38.996 48.238C38.996 48.7392 38.59 49.1443 38.0897 49.1443Z" fill="black"/>
<path d="M51.6835 42.5667C51.1823 42.5667 50.7727 42.1616 50.7727 41.6605C50.7727 41.1593 51.1733 40.7542 51.6735 40.7542H51.6835C52.1837 40.7542 52.5897 41.1593 52.5897 41.6605C52.5897 42.1616 52.1837 42.5667 51.6835 42.5667Z" fill="black"/>
<path d="M47.1522 44.7589C46.6511 44.7589 46.2415 44.3538 46.2415 43.8526C46.2415 43.3515 46.642 42.9464 47.1423 42.9464H47.1522C47.6525 42.9464 48.0585 43.3515 48.0585 43.8526C48.0585 44.3538 47.6525 44.7589 47.1522 44.7589Z" fill="black"/>
<path d="M42.621 46.9521C42.1198 46.9521 41.7102 46.547 41.7102 46.0458C41.7102 45.5447 42.1108 45.1396 42.611 45.1396H42.621C43.1212 45.1396 43.5272 45.5447 43.5272 46.0458C43.5272 46.547 43.1212 46.9521 42.621 46.9521Z" fill="black"/>
<path d="M33.5585 51.3375C33.0573 51.3375 32.6477 50.9324 32.6477 50.4312C32.6477 49.9301 33.0483 49.525 33.5485 49.525H33.5585C34.0587 49.525 34.4647 49.9301 34.4647 50.4312C34.4647 50.9324 34.0587 51.3375 33.5585 51.3375Z" fill="black"/>
<path d="M19.9647 49.1443C19.4636 49.1443 19.054 48.7392 19.054 48.238C19.054 47.7369 19.4545 47.3318 19.9548 47.3318H19.9647C20.465 47.3318 20.871 47.7369 20.871 48.238C20.871 48.7392 20.465 49.1443 19.9647 49.1443Z" fill="black"/>
<path d="M6.37099 42.5667C5.86983 42.5667 5.46021 42.1616 5.46021 41.6605C5.46021 41.1593 5.86077 40.7542 6.36102 40.7542H6.37099C6.87124 40.7542 7.27724 41.1593 7.27724 41.6605C7.27724 42.1616 6.87124 42.5667 6.37099 42.5667Z" fill="black"/>
<path d="M10.9022 44.7589C10.4011 44.7589 9.99146 44.3538 9.99146 43.8526C9.99146 43.3515 10.392 42.9464 10.8923 42.9464H10.9022C11.4025 42.9464 11.8085 43.3515 11.8085 43.8526C11.8085 44.3538 11.4025 44.7589 10.9022 44.7589Z" fill="black"/>
<path d="M15.4335 46.9521C14.9323 46.9521 14.5227 46.547 14.5227 46.0458C14.5227 45.5447 14.9233 45.1396 15.4235 45.1396H15.4335C15.9337 45.1396 16.3397 45.5447 16.3397 46.0458C16.3397 46.547 15.9337 46.9521 15.4335 46.9521Z" fill="black"/>
<path d="M24.496 51.3375C23.9948 51.3375 23.5852 50.9324 23.5852 50.4312C23.5852 49.9301 23.9858 49.525 24.486 49.525H24.496C24.9962 49.525 25.4022 49.9301 25.4022 50.4312C25.4022 50.9324 24.9962 51.3375 24.496 51.3375Z" fill="black"/>
<path d="M16.2065 30.269C15.8693 30.269 15.5458 30.0805 15.3899 29.7579C15.1724 29.3075 15.3609 28.7646 15.8113 28.5471L19.5433 26.7419C19.9982 26.5253 20.5365 26.7138 20.754 27.1633C20.9715 27.6137 20.783 28.1565 20.3326 28.374L16.6007 30.1793C16.4729 30.24 16.3379 30.269 16.2065 30.269Z" fill="black"/>
<path d="M0.907152 37.6703C0.570027 37.6703 0.246495 37.4818 0.0906203 37.1592C-0.12688 36.7088 0.0616203 36.1659 0.512027 35.9484L10.8397 30.9523C11.2946 30.7366 11.8329 30.9251 12.0504 31.3737C12.2679 31.8241 12.0794 32.3669 11.629 32.5844L1.30137 37.5797C1.17359 37.6413 1.03856 37.6703 0.907152 37.6703Z" fill="black"/>
<path d="M41.7899 30.2662C41.6576 30.2662 41.5235 30.2372 41.3957 30.1755L37.6683 28.3721C37.2179 28.1537 37.0294 27.6118 37.2469 27.1613C37.4653 26.7128 38.0054 26.5243 38.4576 26.7399L42.185 28.5434C42.6354 28.7618 42.8239 29.3037 42.6064 29.7541C42.4506 30.0777 42.127 30.2662 41.7899 30.2662Z" fill="black"/>
<path d="M57.0929 37.6703C56.9605 37.6703 56.8264 37.6413 56.6986 37.5797L46.3692 32.5817C45.9188 32.3633 45.7303 31.8213 45.9478 31.3709C46.1662 30.9214 46.7063 30.7329 47.1585 30.9495L57.488 35.9475C57.9384 36.1659 58.1269 36.7079 57.9094 37.1583C57.7535 37.4818 57.43 37.6703 57.0929 37.6703Z" fill="black"/>
<path d="M29.0001 42.2032C28.8614 42.2032 28.7219 42.1715 28.595 42.1081L19.5325 37.5759C19.0848 37.3521 18.9036 36.8074 19.1274 36.3597C19.3522 35.912 19.8959 35.7326 20.3436 35.9546L29.0001 40.2838L37.6575 35.9546C38.1052 35.7326 38.6499 35.912 38.8737 36.3597C39.0975 36.8074 38.9163 37.3521 38.4686 37.5759L29.4061 42.1081C29.2783 42.1715 29.1388 42.2032 29.0001 42.2032Z" fill="black"/>
<path d="M29.0001 11.3845C28.8614 11.3845 28.7219 11.3527 28.595 11.2893L19.5325 6.75715C19.0848 6.5333 18.9036 5.98865 19.1274 5.54096C19.3522 5.09327 19.8959 4.91384 20.3436 5.13587L29.0001 9.46502L37.6575 5.13587C38.1052 4.91384 38.6499 5.09327 38.8737 5.54096C39.0975 5.98865 38.9163 6.5333 38.4686 6.75715L29.4061 11.2893C29.2783 11.3527 29.1388 11.3845 29.0001 11.3845Z" fill="black"/>
<path d="M38.0616 6.85324C37.9257 6.85324 37.787 6.82243 37.6574 6.75808L29 2.42802L20.3426 6.75718C19.8949 6.97921 19.3512 6.79977 19.1264 6.35208C18.9026 5.9044 19.0838 5.35974 19.5315 5.1359L28.594 0.60374C28.8487 0.475959 29.1496 0.475959 29.4051 0.60374L38.4676 5.1359C38.9153 5.35974 39.0966 5.9044 38.8727 6.35208C38.7141 6.67018 38.3942 6.85324 38.0616 6.85324Z" fill="black"/>
<path d="M29 42.2033C28.4988 42.2033 28.0938 41.7982 28.0938 41.2971V10.4773C28.0938 9.97615 28.4988 9.57106 29 9.57106C29.5012 9.57106 29.9062 9.97615 29.9062 10.4773V41.2971C29.9062 41.7982 29.5012 42.2033 29 42.2033Z" fill="black"/>
<path d="M38.0625 37.6711C37.5613 37.6711 37.1562 37.266 37.1562 36.7649V5.94513C37.1562 5.44397 37.5613 5.03888 38.0625 5.03888C38.5637 5.03888 38.9688 5.44397 38.9688 5.94513V36.7649C38.9688 37.266 38.5637 37.6711 38.0625 37.6711Z" fill="black"/>
<path d="M19.9375 37.6711C19.4363 37.6711 19.0312 37.266 19.0312 36.7649V5.94513C19.0312 5.44397 19.4363 5.03888 19.9375 5.03888C20.4387 5.03888 20.8438 5.44397 20.8438 5.94513V36.7649C20.8438 37.266 20.4387 37.6711 19.9375 37.6711Z" fill="black"/>
<path d="M26.2795 36.3083C26.1436 36.3083 26.0049 36.2775 25.8753 36.2131L22.2494 34.3997C21.8017 34.1759 21.6205 33.6312 21.8443 33.1835C22.0691 32.7358 22.6128 32.5564 23.0605 32.7784L26.6864 34.5918C27.1341 34.8157 27.3154 35.3603 27.0915 35.808C26.932 36.1252 26.6121 36.3083 26.2795 36.3083Z" fill="black"/>
<path d="M26.2795 32.6833C26.1436 32.6833 26.0049 32.6525 25.8753 32.5881L22.2494 30.7747C21.8017 30.5509 21.6205 30.0062 21.8443 29.5585C22.0691 29.1108 22.6128 28.9314 23.0605 29.1534L26.6864 30.9668C27.1341 31.1907 27.3154 31.7353 27.0915 32.183C26.932 32.5002 26.6121 32.6833 26.2795 32.6833Z" fill="black"/>
<path d="M26.2795 29.0582C26.1436 29.0582 26.0049 29.0274 25.8753 28.963L22.2494 27.1496C21.8017 26.9258 21.6205 26.3811 21.8443 25.9334C22.0691 25.4857 22.6128 25.3054 23.0605 25.5283L26.6864 27.3417C27.1341 27.5656 27.3154 28.1102 27.0915 28.5579C26.932 28.8751 26.6121 29.0582 26.2795 29.0582Z" fill="black"/>
<path d="M26.2795 25.4332C26.1436 25.4332 26.0049 25.4024 25.8753 25.3381L22.2494 23.5246C21.8017 23.3008 21.6205 22.7561 21.8443 22.3085C22.0691 21.8599 22.6128 21.6813 23.0605 21.9034L26.6864 23.7168C27.1341 23.9406 27.3154 24.4853 27.0915 24.933C26.932 25.2501 26.6121 25.4332 26.2795 25.4332Z" fill="black"/>
<path d="M26.2795 21.8083C26.1436 21.8083 26.0049 21.7774 25.8753 21.7131L22.2494 19.8997C21.8017 19.6758 21.6205 19.1312 21.8443 18.6835C22.0691 18.2358 22.6128 18.0564 23.0605 18.2784L26.6864 20.0918C27.1341 20.3157 27.3154 20.8603 27.0915 21.308C26.932 21.6252 26.6121 21.8083 26.2795 21.8083Z" fill="black"/>
<path d="M26.2795 18.1832C26.1436 18.1832 26.0049 18.1523 25.8753 18.088L22.2494 16.2746C21.8017 16.0507 21.6205 15.5061 21.8443 15.0584C22.0691 14.6107 22.6128 14.4304 23.0605 14.6533L26.6864 16.4667C27.1341 16.6906 27.3154 17.2352 27.0915 17.6829C26.932 18.0001 26.6121 18.1832 26.2795 18.1832Z" fill="black"/>
<path d="M26.2795 14.5582C26.1436 14.5582 26.0049 14.5274 25.8753 14.463L22.2494 12.6496C21.8017 12.4258 21.6205 11.8811 21.8443 11.4334C22.0691 10.9857 22.6128 10.8054 23.0605 11.0283L26.6864 12.8417C27.1341 13.0656 27.3154 13.6102 27.0915 14.0579C26.932 14.3751 26.6121 14.5582 26.2795 14.5582Z" fill="black"/>
<path d="M31.7207 36.3082C31.3881 36.3082 31.0682 36.1251 30.9087 35.8071C30.6848 35.3594 30.8661 34.8147 31.3138 34.5909L34.9397 32.7775C35.3874 32.5554 35.932 32.7349 36.1559 33.1826C36.3797 33.6302 36.1984 34.1749 35.7508 34.3987L32.1249 36.2122C31.9953 36.2774 31.8566 36.3082 31.7207 36.3082Z" fill="black"/>
<path d="M31.7207 32.6832C31.3881 32.6832 31.0682 32.5001 30.9087 32.182C30.6848 31.7343 30.8661 31.1897 31.3138 30.9658L34.9397 29.1524C35.3874 28.9304 35.932 29.1098 36.1559 29.5575C36.3797 30.0052 36.1984 30.5499 35.7508 30.7737L32.1249 32.5871C31.9953 32.6524 31.8566 32.6832 31.7207 32.6832Z" fill="black"/>
<path d="M31.7207 29.0581C31.3881 29.0581 31.0682 28.8751 30.9087 28.557C30.6848 28.1093 30.8661 27.5646 31.3138 27.3408L34.9397 25.5274C35.3874 25.3044 35.932 25.4848 36.1559 25.9325C36.3797 26.3802 36.1984 26.9248 35.7508 27.1487L32.1249 28.9621C31.9953 29.0273 31.8566 29.0581 31.7207 29.0581Z" fill="black"/>
<path d="M31.7207 25.4332C31.3881 25.4332 31.0682 25.2501 30.9087 24.932C30.6848 24.4844 30.8661 23.9397 31.3138 23.7159L34.9397 21.9024C35.3874 21.6804 35.932 21.8589 36.1559 22.3075C36.3797 22.7552 36.1984 23.2999 35.7508 23.5237L32.1249 25.3371C31.9953 25.4024 31.8566 25.4332 31.7207 25.4332Z" fill="black"/>
<path d="M31.7207 21.8082C31.3881 21.8082 31.0682 21.6252 30.9087 21.3071C30.6848 20.8594 30.8661 20.3147 31.3138 20.0909L34.9397 18.2775C35.3874 18.0554 35.932 18.2349 36.1559 18.6826C36.3797 19.1302 36.1984 19.6749 35.7508 19.8987L32.1249 21.7121C31.9953 21.7774 31.8566 21.8082 31.7207 21.8082Z" fill="black"/>
<path d="M31.7207 18.1831C31.3881 18.1831 31.0682 18.0001 30.9087 17.682C30.6848 17.2343 30.8661 16.6896 31.3138 16.4658L34.9397 14.6524C35.3874 14.4295 35.932 14.6098 36.1559 15.0575C36.3797 15.5052 36.1984 16.0498 35.7508 16.2737L32.1249 18.0871C31.9953 18.1523 31.8566 18.1831 31.7207 18.1831Z" fill="black"/>
<path d="M31.7207 14.5581C31.3881 14.5581 31.0682 14.3751 30.9087 14.057C30.6848 13.6093 30.8661 13.0646 31.3138 12.8408L34.9397 11.0274C35.3874 10.8045 35.932 10.9848 36.1559 11.4325C36.3797 11.8802 36.1984 12.4248 35.7508 12.6487L32.1249 14.4621C31.9953 14.5273 31.8566 14.5581 31.7207 14.5581Z" fill="black"/>
<path d="M44.4062 34.0425C42.4071 34.0425 40.7812 32.4167 40.7812 30.4175C40.7812 29.3835 41.8252 23.1639 44.4062 23.1639C46.9872 23.1639 48.0312 29.3835 48.0312 30.4175C48.0312 32.4167 46.4054 34.0425 44.4062 34.0425ZM44.4062 24.9963C43.6903 25.4358 42.5938 28.9231 42.5938 30.4175C42.5938 31.4171 43.4067 32.23 44.4062 32.23C45.4058 32.23 46.2188 31.4171 46.2188 30.4175C46.2188 28.9231 45.1222 25.4358 44.4062 24.9963Z" fill="black"/>
<path d="M44.4064 37.6648C43.9052 37.6648 43.5001 37.2597 43.5001 36.7585V30.4175C43.5001 29.9163 43.9052 29.5112 44.4064 29.5112C44.9075 29.5112 45.3126 29.9163 45.3126 30.4175V36.7585C45.3126 37.2597 44.9075 37.6648 44.4064 37.6648Z" fill="black"/>
<path d="M13.5938 34.0425C11.5946 34.0425 9.96875 32.4167 9.96875 30.4175C9.96875 29.3835 11.0127 23.1639 13.5938 23.1639C16.1747 23.1639 17.2188 29.3835 17.2188 30.4175C17.2188 32.4167 15.5929 34.0425 13.5938 34.0425ZM13.5938 24.9963C12.8778 25.4358 11.7812 28.9231 11.7812 30.4175C11.7812 31.4171 12.5942 32.23 13.5938 32.23C14.5933 32.23 15.4062 31.4171 15.4062 30.4175C15.4062 28.9231 14.3097 25.4358 13.5938 24.9963Z" fill="black"/>
<path d="M13.5938 37.6648C13.0926 37.6648 12.6875 37.2597 12.6875 36.7585V30.4175C12.6875 29.9163 13.0926 29.5112 13.5938 29.5112C14.0949 29.5112 14.5 29.9163 14.5 30.4175V36.7585C14.5 37.2597 14.0949 37.6648 13.5938 37.6648Z" fill="black"/>
</svg>
